<?xml version="1.0"?>
<svg width="168" height="27" xmlns="http://www.w3.org/2000/svg" xmlns:svg="http://www.w3.org/2000/svg">
 <defs>
  <filter color-interpolation-filters="sRGB" filterUnits="userSpaceOnUse" height="1.01" id="filter4_d_2164_2166" width="1" x="6.03" y="13.98">
   <feFlood flood-opacity="0" result="BackgroundImageFix"/>
   <feColorMatrix in="SourceAlpha" result="hardAlpha" type="matrix" values="0 0 0 0 0 0 0 0 0 0 0 0 0 0 0 0 0 0 127 0"/>
   <feOffset/>
   <feGaussianBlur stdDeviation="0.17"/>
   <feComposite in2="hardAlpha" operator="out"/>
   <feColorMatrix type="matrix" values="0 0 0 0 0.592157 0 0 0 0 0.392157 0 0 0 0 1 0 0 0 1 0"/>
   <feBlend in2="BackgroundImageFix"/>
   <feBlend in="SourceGraphic" in2="effect1_dropShadow_2164_2166"/>
  </filter>
  <linearGradient id="paint5_linear_2164_2166" x1="0.03" x2="1.04" y1="0.44" y2="0.46">
   <stop stop-color="#26A4FF"/>
   <stop offset="1" stop-color="#0D9AFF"/>
  </linearGradient>
 </defs>
 <g class="layer">
  <title>Layer 1</title>
  <g filter="url(#filter4_d_2164_2166)" id="svg_10">
   <path d="m6.53,14.65c0.08,0 0.15,-0.07 0.15,-0.16c0,-0.09 -0.07,-0.16 -0.15,-0.16c-0.09,0 -0.16,0.07 -0.16,0.16c0,0.09 0.07,0.16 0.16,0.16z" fill="url(#paint5_linear_2164_2166)" id="svg_11"/>
  </g>
  <path d="m16.63,6.19c-0.21,0.09 -0.35,0.3 -0.35,0.53c0,0.23 0.14,0.44 0.35,0.53c1.68,0.65 3.01,2.03 3.64,3.78c0.08,0.22 0.28,0.37 0.51,0.37c0.22,0 0.42,-0.15 0.5,-0.37c0.64,-1.75 1.96,-3.13 3.65,-3.78c0.21,-0.09 0.35,-0.3 0.35,-0.53c0,-0.23 -0.14,-0.44 -0.35,-0.53c-1.69,-0.65 -3.01,-2.03 -3.65,-3.78c-0.08,-0.22 -0.28,-0.37 -0.5,-0.37c-0.23,0 -0.43,0.15 -0.51,0.37c-0.63,1.75 -1.96,3.13 -3.64,3.78zm-5.74,-0.58c-0.12,-0.27 -0.39,-0.45 -0.68,-0.45c-0.29,0 -0.56,0.18 -0.68,0.45c-1.59,3.59 -4.37,6.47 -7.82,8.13c-0.26,0.13 -0.43,0.4 -0.43,0.71c0,0.31 0.17,0.58 0.43,0.71c3.45,1.66 6.23,4.54 7.82,8.13c0.12,0.27 0.39,0.45 0.68,0.45c0.29,0 0.56,-0.18 0.68,-0.45c1.59,-3.6 4.36,-6.48 7.82,-8.14c0.26,-0.12 0.43,-0.4 0.43,-0.7c0,-0.31 -0.17,-0.58 -0.43,-0.71c-3.45,-1.66 -6.22,-4.54 -7.82,-8.13zm9.38,12.4c-0.63,1.75 -1.96,3.13 -3.64,3.78c-0.21,0.09 -0.35,0.3 -0.35,0.53c0,0.23 0.14,0.44 0.35,0.53c1.68,0.65 3.01,2.03 3.64,3.78c0.08,0.22 0.28,0.37 0.51,0.37c0.22,0 0.42,-0.15 0.5,-0.37c0.64,-1.75 1.96,-3.13 3.65,-3.78c0.21,-0.09 0.35,-0.3 0.35,-0.53c0,-0.23 -0.14,-0.44 -0.35,-0.53c-1.69,-0.65 -3.01,-2.03 -3.65,-3.78c-0.08,-0.22 -0.28,-0.37 -0.5,-0.37c-0.23,0 -0.43,0.15 -0.51,0.37z" fill="#000000" id="svg_16"/>
  <text fill="#000000" font-family="Monospace" font-size="26" font-weight="bold" id="svg_23" stroke-width="0" text-anchor="middle" x="99" xml:space="preserve" y="24">Pixel-AI</text>
 </g>
</svg>